<svg id="Layer_1" data-name="Layer 1" xmlns="http://www.w3.org/2000/svg" viewBox="0 0 663.12 470.48"><defs><style>.cls-1{fill:#f7901e;}.cls-2{fill:none;stroke:#231f20;stroke-miterlimit:10;stroke-width:18px;}.cls-3{fill:#231f20;}</style></defs><title>Artboard 1</title><path class="cls-1" d="M345.17,291.31v-38.1l-15.48-15.49-41.12,53.59H277.19L323,232,284,192.63H294.6l50.57,51.12V192.63h9.32v98.68Z"/><path class="cls-1" d="M343.07,291.31V192.63h36.05q9.58,0,15.83,2.19a24.45,24.45,0,0,1,9.86,6,21.32,21.32,0,0,1,5.08,8.84,37.75,37.75,0,0,1,1.44,10.49q0,8.22-3.36,13.57a24.88,24.88,0,0,1-8.7,8.43,37.64,37.64,0,0,1-12.13,4.31,76.38,76.38,0,0,1-13.64,1.24H352.39v43.58Zm30.7-51.54a75.89,75.89,0,0,0,11.79-.82,23.33,23.33,0,0,0,8.84-3.08A15.23,15.23,0,0,0,400,229.7a22.46,22.46,0,0,0,2-10.21q0-9.31-6.1-14.11t-19.4-4.8H352.39v39.19Z"/><rect class="cls-2" x="166.1" y="125.74" width="356.32" height="232.45" rx="12"/><path class="cls-3" d="M370.91,365.6l15.55,19a6.12,6.12,0,0,1-4.73,10H293.22a6.12,6.12,0,0,1-3.88-10.85l23.14-19a6.09,6.09,0,0,1,3.88-1.39h49.82A6.11,6.11,0,0,1,370.91,365.6Z"/></svg>